<svg width="18" height="22" viewBox="0 0 18 22" fill="none" xmlns="http://www.w3.org/2000/svg">
<path fill-rule="evenodd" clip-rule="evenodd" d="M12.3206 6.16203C9.3075 4.95562 5.64324 5.63823 3.50511 7.99556L3.50498 7.99571C2.45459 9.15319 1.79581 10.6129 1.62242 12.167C1.44903 13.721 1.76988 15.2902 2.53928 16.6512C3.30868 18.0121 4.48741 19.0953 5.90763 19.7467C7.32785 20.398 8.91716 20.5842 10.4493 20.2788L10.4495 20.2787C13.5451 19.6625 15.8296 16.8707 16.4386 13.8227C16.524 13.3954 16.9393 13.1183 17.3662 13.2037C17.7931 13.2892 18.0699 13.7049 17.9845 14.1322C17.2797 17.6597 14.6113 21.0593 10.757 21.8265C8.89953 22.1968 6.97275 21.971 5.25095 21.1813C3.52909 20.3917 2.10002 19.0784 1.1672 17.4284C0.234392 15.7784 -0.154601 13.8759 0.0556135 11.9918C0.265821 10.1077 1.06448 8.33807 2.33787 6.93477M2.338 6.93463C4.96632 4.03699 9.35024 3.27306 12.9061 4.6968C13.3103 4.85864 13.5069 5.31785 13.3452 5.72246C13.1835 6.12707 12.7248 6.32387 12.3206 6.16203" fill="black"/>
<path fill-rule="evenodd" clip-rule="evenodd" d="M17.7441 5.82254C18.064 6.11812 18.0839 6.61732 17.7886 6.93754L9.90588 15.4856C9.76037 15.6434 9.55689 15.735 9.34241 15.7393C9.12792 15.7436 8.92095 15.6602 8.76926 15.5083L5.48479 12.2206C5.17695 11.9125 5.17695 11.4129 5.48479 11.1047C5.79263 10.7966 6.29173 10.7966 6.59957 11.1047L9.30391 13.8117L16.6302 5.86714C16.9255 5.54693 17.4242 5.52696 17.7441 5.82254Z" fill="#EE4F50"/>
</svg>
