<svg width="38" height="38" viewBox="0 0 38 38" fill="none" xmlns="http://www.w3.org/2000/svg">
<g clip-path="url(#clip0_6120_27973)">
<path fill-rule="evenodd" clip-rule="evenodd" d="M14.9508 0C11.969 0 9.55188 2.34043 9.55188 5.22749V8.84653H18.8961V9.85182H5.39889C2.41716 9.85182 0 12.1923 0 15.0793V22.9206C0 25.8076 2.41716 28.148 5.39889 28.148H8.51363V23.7248C8.51363 20.8378 10.9308 18.4973 13.9126 18.4973H23.8797C26.4027 18.4973 28.4479 16.5169 28.4479 14.0741V5.22749C28.4479 2.34043 26.0309 0 23.0491 0H14.9508ZM13.7049 6.43384C14.737 6.43384 15.5737 5.62368 15.5737 4.62433C15.5737 3.62496 14.737 2.8148 13.7049 2.8148C12.6727 2.8148 11.836 3.62496 11.836 4.62433C11.836 5.62368 12.6727 6.43384 13.7049 6.43384Z" fill="url(#paint0_linear_6120_27973)"/>
<path fill-rule="evenodd" clip-rule="evenodd" d="M23.0479 37.9996C26.0297 37.9996 28.4469 35.6592 28.4469 32.7722V29.1531H19.1026V28.1479H32.5999C35.5817 28.1479 37.9987 25.8073 37.9987 22.9203V15.079C37.9987 12.192 35.5817 9.85156 32.5999 9.85156H29.4851V14.2748C29.4851 17.162 27.0679 19.5023 24.0863 19.5023H14.1191C11.596 19.5023 9.55078 21.4827 9.55078 23.9255V32.7722C9.55078 35.6592 11.968 37.9996 14.9496 37.9996H23.0479ZM24.2939 31.5658C23.2617 31.5658 22.425 32.3759 22.425 33.3753C22.425 34.3747 23.2617 35.1847 24.2939 35.1847C25.326 35.1847 26.1627 34.3747 26.1627 33.3753C26.1627 32.3759 25.326 31.5658 24.2939 31.5658Z" fill="url(#paint1_linear_6120_27973)"/>
</g>
<defs>
<linearGradient id="paint0_linear_6120_27973" x1="14.224" y1="0" x2="14.224" y2="28.148" gradientUnits="userSpaceOnUse">
<stop stop-color="#327EBD"/>
<stop offset="1" stop-color="#1565A7"/>
</linearGradient>
<linearGradient id="paint1_linear_6120_27973" x1="23.7748" y1="9.85156" x2="23.7748" y2="37.9996" gradientUnits="userSpaceOnUse">
<stop stop-color="#FFDA4B"/>
<stop offset="1" stop-color="#F9C600"/>
</linearGradient>
<clipPath id="clip0_6120_27973">
<rect width="38" height="38" fill="white"/>
</clipPath>
</defs>
</svg>
